<?xml version="1.0" ?><svg enable-background="new 0 0 32 32" version="1.1" viewBox="0 0 32 32" xml:space="preserve" xmlns="http://www.w3.org/2000/svg" xmlns:xlink="http://www.w3.org/1999/xlink"><g id="Full"><linearGradient gradientUnits="userSpaceOnUse" id="SVGID_2_" x1="16" x2="16" y1="31.2933" y2="0.7067"><stop offset="0" style="stop-color:#FF2D76"/><stop offset="1" style="stop-color:#FB0000"/></linearGradient><path d="M32,31.292V19.46c0-6.34-3.384-9.29-7.896-9.29c-3.641,0-5.273,2.003-6.182,3.409v-2.924h-6.86   c0.091,1.937,0,20.637,0,20.637h6.86V19.767c0-0.615,0.044-1.232,0.226-1.672c0.495-1.233,1.624-2.509,3.518-2.509   c2.483,0,3.475,1.892,3.475,4.666v11.041H32V31.292z M3.835,7.838c2.391,0,3.882-1.586,3.882-3.567   c-0.044-2.024-1.49-3.564-3.836-3.564S0,2.246,0,4.271c0,1.981,1.489,3.567,3.792,3.567H3.835z M7.265,31.292V10.655H0.406v20.637   H7.265z" fill="url(#SVGID_2_)"/></g></svg>